# xmcd
#
# Track frame offsets:
# 150
# 17565
# 34359
# 48143
# 66950
# 82149
# 94516
# 107787
# 122474
# 140395
# 156132
# 174103
# 185860
#
# Disc length: 2717 seconds
#
#
# Revision: 1
# Processed by: cddbd v1.5.1PL2 Copyright (c) Steve Scherf et al.
# Submitted via: FreeRIP 2.943 
#
DISCID=a60a9b0d
DTITLE=BAITACA - Meu Rio Grande é Deste Jeito
DYEAR=1900
DGENRE=Country
TTITLE0=Missioneiro Extraviado
TTITLE1=Domador Ventena
TTITLE2=De Tudo Um Pouco
TTITLE3=História Do Tico Louco
TTITLE4=Das Misões Para O Rio Grande
TTITLE5=Bugio Lacaio
TTITLE6=Cada Vez Mais Xucro
TTITLE7=Na Fazenda Ferradura
TTITLE8=Do Fundo Da Grota
TTITLE9=Encontrei A Marcolina
TTITLE10=Retoço De Xucro
TTITLE11=Meu Rio Grande É Desse Jeito
TTITLE12=O Novo Encontro Com O Tico
EXTD=
EXTT0=
EXTT1=
EXTT2=
EXTT3=
EXTT4=
EXTT5=
EXTT6=
EXTT7=
EXTT8=
EXTT9=
EXTT10=
EXTT11=
EXTT12=
PLAYORDER=
